 <svg width="32" height="32" viewBox="0 0 32 32" fill="none" xmlns="http://www.w3.org/2000/svg">
            <g clip-path="url(#clip0_6202_480032)">
              <path d="M2.9906 10.4502C3.62148 10.3816 4.0773 9.81455 4.00869 9.18367C3.94009 8.55279 3.37305 8.09698 2.74216 8.16558C2.11128 8.23418 1.65547 8.80123 1.72407 9.43211C1.79267 10.063 2.35972 10.5188 2.9906 10.4502Z" fill="#F2792E" />
              <path d="M6.56999 5.83964C7.28871 5.76148 7.808 5.11549 7.72984 4.39676C7.65169 3.67803 7.00569 3.15875 6.28696 3.23691C5.56824 3.31506 5.04895 3.96106 5.12711 4.67979C5.20526 5.39851 5.85126 5.9178 6.56999 5.83964Z" fill="#F2792E" />
              <path d="M24.505 5.67753C25.2238 5.59937 25.7431 4.95338 25.6649 4.23465C25.5867 3.51593 24.9407 2.99664 24.222 3.0748C23.5033 3.15295 22.984 3.79895 23.0622 4.51768C23.1403 5.2364 23.7863 5.75569 24.505 5.67753Z" fill="#F2792E" />
              <path d="M15.9089 4.17621C17.0029 4.05724 17.7934 3.07389 17.6744 1.97983C17.5555 0.885771 16.5721 0.0953039 15.478 0.214274C14.384 0.333243 13.5935 1.3166 13.7125 2.41066C13.8315 3.50472 14.8148 4.29518 15.9089 4.17621Z" fill="#F2792E" />
              <path d="M9.21423 8.21305C9.62151 8.16876 9.91577 7.8027 9.87148 7.39542C9.82719 6.98814 9.46113 6.69388 9.05385 6.73817C8.64657 6.78246 8.35231 7.14852 8.3966 7.5558C8.44088 7.96308 8.80695 8.25734 9.21423 8.21305Z" fill="#F2792E" />
              <path d="M20.6041 8.88224C21.0114 8.83795 21.3057 8.47189 21.2614 8.06461C21.2171 7.65733 20.851 7.36307 20.4437 7.40736C20.0365 7.45165 19.7422 7.81771 19.7865 8.22499C19.8308 8.63227 20.1968 8.92653 20.6041 8.88224Z" fill="#F2792E" />
              <path d="M28.5311 10.2173C29.162 10.1487 29.6178 9.58164 29.5492 8.95076C29.4806 8.31988 28.9136 7.86406 28.2827 7.93267C27.6518 8.00127 27.196 8.56832 27.2646 9.1992C27.3332 9.83008 27.9002 10.2859 28.5311 10.2173Z" fill="#F2792E" />
              <path d="M3.31641 8.36365L5.71641 5.38184L5.84732 5.51275L3.38913 8.42184L3.31641 8.36365Z" fill="#F2792E" />
              <path d="M8.8438 7.25813L7.12744 5.46904L7.2438 5.33813L8.91653 7.19995L8.8438 7.25813Z" fill="#F2792E" />
              <path d="M7.302 4.43631L14.0365 2.64722L14.1093 2.83631L7.33109 4.50903L7.302 4.43631Z" fill="#F2792E" />
              <path d="M23.4183 4.24724L17.3674 2.86543L17.3965 2.71997L23.4474 4.18906L23.4183 4.24724Z" fill="#F2792E" />
              <path d="M20.1456 7.738L16.8147 3.59254L16.9456 3.49072L20.2183 7.7089L20.1456 7.738Z" fill="#F2792E" />
              <path d="M20.8728 7.88362L23.4328 5.03271L23.5492 5.11999L20.9019 7.91272L20.8728 7.88362Z" fill="#F2792E" />
              <path d="M27.7527 8.48L25.1055 5.32364L25.2364 5.20728L27.8109 8.45091L27.7527 8.48Z" fill="#F2792E" />
              <path d="M9.54199 7.37452L14.1384 3.27271L14.2693 3.38907L9.60017 7.44725L9.54199 7.37452Z" fill="#F2792E" />
              <path d="M3.88362 16.2035C3.88362 16.2035 3.66544 12.9017 5.80362 11.0544C7.75271 9.35261 8.05817 9.29443 15.8109 9.42534C23.3454 9.52715 24.0291 9.32352 25.8763 11.2726C27.9854 13.4399 27.7527 16.7708 27.7527 16.7708C27.7527 16.7708 29.7454 16.669 30.2109 16.8144C30.6763 16.9599 30.9963 17.3381 30.9963 18.5162C30.9963 19.6944 31.0254 21.4108 30.9963 21.7599C30.9673 22.109 30.4436 22.6617 29.8473 22.7053C29.2509 22.7344 27.6073 22.7781 27.6073 22.7781C27.6073 22.7781 27.7818 25.9199 27.3309 27.389C26.88 28.8581 25.8618 30.6617 23.5345 31.4617C21.2073 32.2617 16.9163 31.9126 13.8618 31.9126C10.8073 31.8981 9.16362 32.2326 6.85089 30.9381C4.53817 29.6435 4.17453 27.6653 3.89817 26.7635C3.63635 25.8617 3.73817 22.3126 3.73817 22.3126C3.73817 22.3126 2.26908 22.3853 1.77453 22.2981C1.27999 22.2108 0.959986 21.7744 0.887258 21.0035C0.78544 20.2326 0.770895 17.6726 0.974531 17.1199C1.23635 16.4653 1.78908 16.1162 3.88362 16.2035Z" fill="#F3792F" />
              <path d="M1.73096 16.378L2.64732 10.0798L3.36005 10.1089L3.88368 16.2035L1.73096 16.378Z" fill="#D9D9D9" />
              <path d="M27.6799 15.5782L28.1308 10.0364L28.7563 9.96362L29.6145 16.7127L27.7236 16.7273L27.6799 15.5782Z" fill="#D9D9D9" />
              <path d="M21.1492 23.6946C21.1492 23.6946 21.1928 29.2364 15.6219 29.2509C10.0801 29.2655 10.1965 23.8109 10.1965 23.8109H10.8219V24.0873C10.851 24.4655 11.1419 24.7419 11.5056 24.7419L19.811 24.64C20.2183 24.64 20.5238 24.2909 20.4947 23.9128V23.6946H21.1492Z" fill="#A20A0A" />
              <path d="M20.5238 23.6946V23.9128C20.5529 24.32 20.2183 24.6255 19.8402 24.64L11.5347 24.7273C11.1565 24.7273 10.8511 24.4509 10.8511 24.0728V23.7964L20.5238 23.6946Z" fill="white" />
              <path d="M14.6183 16.2037C14.7928 17.7601 14.0801 19.2292 12.9019 20.1019C11.9274 19.6074 10.691 19.4037 9.35283 19.5346C8.72737 19.6074 8.14555 19.7237 7.60737 19.9564C6.79283 19.2728 6.22555 18.2837 6.09464 17.1346C5.83283 14.8074 7.5201 12.6692 9.89101 12.4364C12.2474 12.1455 14.3856 13.8474 14.6183 16.2037Z" fill="white" />
              <path d="M16.8 16.2619C16.5382 17.8183 17.1346 19.3019 18.2255 20.2619C19.2146 19.8546 20.4946 19.7092 21.8037 19.9274C22.4291 20.0437 22.9819 20.2328 23.52 20.4365C24.3928 19.811 25.0037 18.8655 25.2073 17.7165C25.6291 15.3746 24.0582 13.1783 21.7455 12.771C19.4328 12.3783 17.2073 13.9201 16.8 16.2619Z" fill="white" />
              <path d="M11.1018 19.2692C12.6751 19.0981 13.8117 17.6841 13.6406 16.1109C13.4696 14.5377 12.0555 13.401 10.4823 13.5721C8.90913 13.7432 7.77247 15.1572 7.94354 16.7304C8.11462 18.3036 9.52864 19.4403 11.1018 19.2692Z" fill="#28282A" />
              <path d="M23.4465 17.2332C23.7203 15.6746 22.6787 14.1891 21.12 13.9153C19.5614 13.6415 18.0759 14.6831 17.8021 16.2418C17.5283 17.8004 18.5699 19.2859 20.1286 19.5597C21.6872 19.8335 23.1727 18.7919 23.4465 17.2332Z" fill="#28282A" />
            </g>
            <defs>
              <clipPath id="clip0_6202_480032">
                <rect width="32" height="32" fill="white" />
              </clipPath>
            </defs>
          </svg>