<svg width="189" height="123" viewBox="0 0 189 123" fill="none" xmlns="http://www.w3.org/2000/svg">
    <g clip-path="url(#clip0_6133_625255)">
        <path
            d="M188.207 76.4959C192.561 54.9428 178.649 33.9348 157.133 29.5733C135.618 25.2118 114.647 39.1483 110.293 60.7014C105.939 82.2545 119.851 103.263 141.366 107.624C162.882 111.986 183.853 98.049 188.207 76.4959Z"
            fill="#F6EECA" />
        <path
            d="M120.458 41.6344C121.71 34.2251 122.478 27.3117 125.454 25.1972C130.933 21.2988 131.337 24.7127 137.533 23.4874C144.872 22.0112 143.706 28.3262 149.043 30.0702C155.477 32.1733 154.055 42.723 150.391 50.3432C140.059 49.9841 129.567 46.0914 120.458 41.6344Z"
            fill="#4F6DDB" />
        <mask id="mask0_6133_625255" style="mask-type:luminance" maskUnits="userSpaceOnUse" x="120" y="23" width="34" height="28">
            <path
                d="M120.458 41.6344C121.71 34.2251 122.478 27.3117 125.454 25.1972C130.933 21.2988 131.337 24.7127 137.533 23.4874C144.872 22.0112 143.706 28.3262 149.043 30.0702C155.477 32.1733 154.055 42.723 150.391 50.3432C140.059 49.9841 129.567 46.0914 120.458 41.6344Z"
                fill="white" />
        </mask>
        <g mask="url(#mask0_6133_625255)">
            <path d="M120.919 44.5353L120.265 43.9882L126.534 36.4136L128.611 36.8866L128.423 37.7245L126.853 37.3654L120.919 44.5353Z"
                fill="#4660C2" />
            <path d="M124.737 32.8527L119.577 42.698L120.332 43.0954L125.492 33.2501L124.737 32.8527Z" fill="#4660C2" />
            <path d="M144.802 44.0574L144.316 44.3547L149.203 52.3579L149.688 52.0605L144.802 44.0574Z" fill="#4660C2" />
            <path d="M143.816 44.8107L143.276 44.99L145.437 51.5256L145.977 51.3464L143.816 44.8107Z" fill="#4660C2" />
        </g>
        <path
            d="M131.507 52.4407C131.712 53.706 132.844 60.2432 130.5 62.5629C132.537 65.6691 125.92 82.511 133.783 83.081C141.646 83.6509 145.731 57.6386 145.731 57.6386C145.509 57.1541 145.293 56.664 145.088 56.151C143.801 53.1102 143.005 49.8841 142.727 46.593C143.697 46.5183 144.626 46.1727 145.41 45.5954C146.193 45.0181 146.799 44.2323 147.159 43.3272C147.995 41.264 147.438 38.8988 145.1 38.3516C140.912 37.3713 140.007 42.991 140.007 42.991C140.007 42.991 136.286 41.1044 137.732 36.5734C139.325 31.5636 134.278 31.5579 134.278 31.5579C133.692 33.0984 132.66 34.4281 131.313 35.3758C129.967 36.3235 128.368 36.8458 126.722 36.8755C126.756 37.8813 126.647 38.8869 126.398 39.862C126.107 41.2219 125.736 42.5635 125.289 43.8801C124.509 46.1371 125.988 52.7029 131.507 52.4407Z"
            fill="#FEC2A0" />
        <path
            d="M135.411 38.4769C135.368 38.4762 135.326 38.4622 135.291 38.437C133.527 37.2174 132.549 37.5821 132.537 37.5821C132.486 37.6029 132.429 37.6026 132.378 37.5813C132.326 37.5599 132.286 37.5193 132.264 37.4681C132.244 37.4167 132.244 37.3592 132.265 37.3079C132.287 37.2567 132.327 37.216 132.378 37.1946C132.424 37.1946 133.556 36.7215 135.53 38.0894C135.566 38.1153 135.593 38.1518 135.607 38.1938C135.621 38.2359 135.621 38.2812 135.608 38.3235C135.595 38.3657 135.568 38.4027 135.533 38.4292C135.498 38.4558 135.455 38.4705 135.411 38.4712V38.4769Z"
            fill="#303134" />
        <path
            d="M133.79 40.8185C133.94 39.9852 133.731 39.2499 133.323 39.1761C132.915 39.1023 132.462 39.718 132.312 40.5513C132.162 41.3846 132.371 42.1199 132.779 42.1937C133.187 42.2675 133.64 41.6518 133.79 40.8185Z"
            fill="#303134" />
        <path
            d="M127.805 39.5445C127.947 38.7608 127.79 38.0765 127.456 38.0161C127.122 37.9557 126.737 38.5421 126.596 39.3258C126.455 40.1095 126.611 40.7938 126.945 40.8542C127.279 40.9146 127.664 40.3282 127.805 39.5445Z"
            fill="#303134" />
        <path
            d="M128.128 44.7349C127.927 44.7528 127.725 44.7076 127.551 44.6055C127.377 44.5033 127.238 44.3494 127.155 44.165C126.825 43.4355 127.337 42.1987 128.208 41.623C128.255 41.592 128.312 41.5809 128.367 41.5922C128.422 41.6034 128.47 41.636 128.501 41.6829C128.532 41.7297 128.543 41.787 128.532 41.842C128.52 41.8971 128.488 41.9454 128.441 41.9764C127.69 42.4723 127.303 43.5038 127.536 43.994C127.718 44.393 128.242 44.336 128.674 44.2277C128.701 44.22 128.729 44.2177 128.756 44.221C128.783 44.2244 128.81 44.2332 128.834 44.2471C128.858 44.2609 128.879 44.2795 128.895 44.3016C128.912 44.3237 128.924 44.349 128.93 44.3759C128.944 44.4295 128.937 44.4865 128.909 44.5345C128.881 44.5825 128.836 44.6176 128.782 44.6323C128.57 44.6965 128.35 44.731 128.128 44.7349Z"
            fill="#303134" />
        <path
            d="M129.67 47.032C129.056 47.0082 128.455 46.8466 127.912 46.559C127.869 46.5308 127.838 46.4881 127.825 46.4388C127.811 46.3895 127.816 46.337 127.838 46.2911C127.861 46.2451 127.899 46.2088 127.946 46.1889C127.993 46.1689 128.045 46.1668 128.094 46.1828C128.43 46.3918 128.807 46.5268 129.199 46.5788C129.592 46.6309 129.991 46.5989 130.37 46.4849C130.755 46.3163 131.059 46.0033 131.217 45.6129C131.238 45.5647 131.276 45.526 131.324 45.5045C131.372 45.483 131.426 45.4802 131.476 45.4966C131.526 45.513 131.568 45.5475 131.594 45.5932C131.62 45.639 131.627 45.6927 131.616 45.7439C131.522 45.9966 131.379 46.2277 131.194 46.4235C131.009 46.6194 130.787 46.7759 130.54 46.8838C130.263 46.9925 129.967 47.043 129.67 47.032Z"
            fill="#303134" />
        <path
            d="M131.507 52.4407C131.507 52.4407 134.142 52.0246 135.245 50.1609C134.733 53.0106 131.832 54.3215 131.832 54.3215L131.507 52.4407Z"
            fill="#F99979" />
        <path
            d="M57.6858 58.0945C57.6858 58.0945 56.6389 57.5246 57.5151 56.8691C58.3913 56.2137 59.6032 57.4106 61.0597 58.6531C62.5162 59.8955 63.6086 60.4769 66.1177 60.7334C68.6268 60.9898 69.6281 60.0152 69.446 59.6505C69.3493 59.451 68.7292 59.2572 68.018 59.0805L68.5869 56.8007C69.9902 57.0842 71.3665 57.4885 72.7005 58.009C75.8524 59.2458 78.7712 60.4826 79.5279 62.238C80.2846 63.9934 100.721 78.7664 103.276 81.3597C108.186 86.3581 108.305 91.2084 105.336 93.3913C104.266 94.2033 102.962 94.6435 101.62 94.6451C96.0502 94.9472 77.1553 68.2566 76.5864 67.7209C75.7671 66.9287 73.258 67.8235 72.1884 67.795C71.0265 67.8004 69.8721 67.6076 68.7747 67.225C67.9782 66.8489 66.0665 66.2618 65.1732 65.8116C64.28 65.3613 61.623 63.8852 61.1166 63.4976C60.6102 63.11 60.5476 62.6883 59.7909 61.5769C59.1734 60.6909 58.4927 59.8509 57.7541 59.0634C56.9803 58.2199 57.6858 58.0945 57.6858 58.0945Z"
            fill="#FEC2A0" />
        <path
            d="M60.7869 59.8841C60.5254 59.332 60.1351 58.8511 59.649 58.482C59.3881 58.2795 59.0772 58.1519 58.7495 58.1127C58.4218 58.0736 58.0896 58.1244 57.7885 58.2597L57.6235 57.9292C57.99 57.7564 58.3974 57.6899 58.7997 57.7373C59.2019 57.7846 59.5829 57.9439 59.8993 58.197C60.4486 58.6018 60.887 59.139 61.1738 59.7587L60.7869 59.8841Z"
            fill="#F99055" />
        <path
            d="M66.2542 66.1651C66.1973 66.1024 65.782 65.7775 65.3382 65.4298C64.1603 64.5451 63.0339 63.5936 61.9644 62.5801C61.6287 62.2324 61.3271 61.976 61.0654 61.7423C60.3827 61.1723 59.9275 60.762 60.4168 59.9698C60.4766 59.8682 60.5592 59.7819 60.6579 59.7176C60.7566 59.6533 60.8688 59.6128 60.9858 59.5993C61.7595 59.4796 62.9316 60.3459 63.7907 61.0925C63.9614 61.2407 64.1548 61.4288 64.3596 61.6283C64.9912 62.2381 65.782 63.0019 66.5103 63.2127C67.523 63.5091 68.1318 63.7827 68.1602 63.7827L68.0237 64.1247C68.0237 64.1247 67.3978 63.8682 66.4079 63.5547C65.5943 63.3153 64.7693 62.5174 64.1321 61.8791C63.9272 61.6853 63.7452 61.5029 63.5631 61.3547C62.4252 60.3858 61.5376 59.8672 61.054 59.947C60.994 59.9547 60.9366 59.9762 60.8863 60.0098C60.836 60.0434 60.7941 60.0882 60.7639 60.1407C60.4566 60.648 60.6273 60.8304 61.3328 61.4459C61.5888 61.6682 61.9018 61.9475 62.2602 62.3065C63.3182 63.2996 64.4313 64.232 65.5943 65.0993C66.6241 65.8972 66.6241 65.8972 66.6184 66.0283H66.2542H66.4363L66.2542 66.1651Z"
            fill="#F99055" />
        <path
            d="M72.7177 63.0988L72.638 62.7397L72.6778 62.9221L72.6323 62.7454C72.701 62.7116 72.7675 62.6735 72.8315 62.6314C73.4708 62.1943 74.2183 61.9427 74.9914 61.9045C75.7646 61.8663 76.5332 62.0429 77.2124 62.4148L77.0474 62.7397C76.4246 62.3943 75.7178 62.2304 75.0069 62.2667C74.296 62.3029 73.6094 62.5379 73.0249 62.9449C72.9303 63.0105 72.8268 63.0624 72.7177 63.0988Z"
            fill="#F99055" />
        <path
            d="M103.76 81.4395L117.414 74.0645L129.772 89.1737C129.772 89.1737 105.398 97.1074 99.9817 94.1835C94.5653 91.2597 101.916 86.9053 103.76 81.4395Z"
            fill="#FEC2A0" />
        <path
            d="M66.266 58.5961C65.1736 58.2485 63.8991 57.5417 63.7114 56.6241C63.5236 55.7065 63.7114 55.1195 65.9474 56.0086C66.7981 56.3395 67.6756 56.597 68.5702 56.778L68.0013 59.0578C67.4494 58.921 66.761 58.7557 66.266 58.5961Z"
            fill="#FEC2A0" />
        <mask id="mask1_6133_625255" style="mask-type:luminance" maskUnits="userSpaceOnUse" x="109" y="28" width="81" height="81">
            <path
                d="M188.207 76.4959C192.561 54.9428 178.649 33.9348 157.133 29.5733C135.618 25.2118 114.647 39.1483 110.293 60.7014C105.939 82.2545 119.851 103.263 141.366 107.624C162.882 111.986 183.853 98.049 188.207 76.4959Z"
                fill="white" />
        </mask>
        <g mask="url(#mask1_6133_625255)">
            <path
                d="M175.277 76.8059C176.836 86.4437 177.399 96.8908 178.27 102.676C178.782 106.095 174.651 109.15 168.899 111.84C166.1 102.784 162.834 93.8929 162.936 84.6883C163.249 80.5163 169.952 78.1225 175.277 76.8059Z"
                fill="#FEC2A0" />
            <path
                d="M119.281 63.6345C125.744 60.061 128.998 62.6884 131.582 60.2148C133.539 61.8791 133.698 73.4889 135.968 72.9018C138.887 72.1495 142.665 58.9838 143.569 55.7465L144.445 53.5408C146.608 55.2506 162.868 53.9511 166.356 55.8206C171.175 58.3796 173.718 67.2195 175.277 76.8231C169.952 78.1396 163.249 80.5334 162.936 84.7111C162.834 93.9157 166.1 102.807 168.899 111.863C158.504 116.731 142.807 120.413 139.615 123.017C134.005 105.828 113.176 76.5096 113.176 76.5096C113.176 76.5096 111.344 68.0402 119.281 63.6345Z"
                fill="#FE3737" />
        </g>
        <path
            d="M29.5284 39.8849H1.64977C1.20614 39.8849 0.780674 39.7083 0.466979 39.3941C0.153283 39.0798 -0.0229492 38.6536 -0.0229492 38.2092V17.7311C-0.0229492 17.2867 0.153283 16.8604 0.466979 16.5462C0.780674 16.232 1.20614 16.0554 1.64977 16.0554H29.5284C29.972 16.0554 30.3975 16.232 30.7112 16.5462C31.0249 16.8604 31.2011 17.2867 31.2011 17.7311V38.2092C31.2011 38.6536 31.0249 39.0798 30.7112 39.3941C30.3975 39.7083 29.972 39.8849 29.5284 39.8849ZM1.64977 17.2751C1.52754 17.2751 1.41032 17.3237 1.3239 17.4103C1.23747 17.4969 1.18892 17.6143 1.18892 17.7368V38.2149C1.19042 38.3364 1.23963 38.4523 1.32589 38.5377C1.41216 38.623 1.52852 38.6709 1.64977 38.6709H29.5284C29.6496 38.6709 29.766 38.623 29.8523 38.5377C29.9385 38.4523 29.9878 38.3364 29.9892 38.2149V17.7311C29.9892 17.6086 29.9407 17.4912 29.8543 17.4046C29.7678 17.318 29.6506 17.2694 29.5284 17.2694L1.64977 17.2751Z"
            fill="#F4706B" />
        <path
            d="M77.7471 23.8294H49.8685C49.4249 23.8294 48.9994 23.6529 48.6857 23.3386C48.372 23.0244 48.1958 22.5982 48.1958 22.1538V1.67564C48.1958 1.23123 48.372 0.805028 48.6857 0.490784C48.9994 0.176541 49.4249 0 49.8685 0H77.7471C78.1868 0.005993 78.6065 0.185176 78.9153 0.498772C79.224 0.812369 79.3971 1.23515 79.3971 1.67564V22.1538C79.3971 22.5943 79.224 23.0171 78.9153 23.3307C78.6065 23.6443 78.1868 23.8234 77.7471 23.8294ZM49.8685 1.21968C49.808 1.21968 49.7481 1.23162 49.6922 1.25482C49.6362 1.27802 49.5854 1.31203 49.5426 1.3549C49.4998 1.39777 49.4659 1.44866 49.4427 1.50467C49.4196 1.56068 49.4077 1.62071 49.4077 1.68134V22.1595C49.4077 22.2819 49.4562 22.3994 49.5426 22.4859C49.6291 22.5725 49.7463 22.6211 49.8685 22.6211H77.7471C77.8694 22.6211 77.9866 22.5725 78.073 22.4859C78.1594 22.3994 78.208 22.2819 78.208 22.1595V1.67564C78.208 1.5532 78.1594 1.43578 78.073 1.3492C77.9866 1.26262 77.8694 1.21398 77.7471 1.21398L49.8685 1.21968Z"
            fill="#F4706B" />
        <path d="M45.4532 12.7633L31.8433 20.5872L32.3813 21.5264L45.9912 13.7025L45.4532 12.7633Z" fill="#029D41" />
        <path d="M43.724 14.3512L44.8392 16.4201L46.0738 14.4139L47.3027 12.4134L44.9587 12.345L42.6089 12.2766L43.724 14.3512Z"
            fill="#029D41" />
        <path d="M32.3878 33.1795L31.8496 34.1187L45.4581 41.9449L45.9963 41.0058L32.3878 33.1795Z" fill="#029D41" />
        <path d="M43.724 40.358L44.8392 38.2891L46.0738 40.2896L47.3027 42.2958L44.9587 42.3642L42.6089 42.4326L43.724 40.358Z"
            fill="#029D41" />
        <path
            d="M79.5396 62.3407C79.3738 62.34 79.209 62.315 79.0503 62.2666L52.4063 54.1392C52.1939 54.0777 51.9957 53.9747 51.8232 53.836C51.6508 53.6973 51.5075 53.5257 51.4017 53.3312C51.2959 53.1367 51.2296 52.9231 51.2067 52.7027C51.1839 52.4824 51.2048 52.2597 51.2684 52.0475L57.2196 32.4585C57.281 32.2456 57.3839 32.0471 57.5223 31.8744C57.6608 31.7016 57.8321 31.5581 58.0262 31.4521C58.2204 31.3461 58.4337 31.2797 58.6536 31.2568C58.8736 31.2339 59.0959 31.2549 59.3077 31.3186L85.9517 39.446C86.1642 39.5075 86.3623 39.6105 86.5348 39.7492C86.7072 39.8879 86.8505 40.0595 86.9563 40.254C87.0621 40.4485 87.1284 40.6621 87.1513 40.8825C87.1742 41.1028 87.1532 41.3255 87.0896 41.5377L81.1384 61.1267C81.0338 61.4703 80.8222 61.7713 80.5345 61.9857C80.2468 62.2001 79.8982 62.3165 79.5396 62.3179V62.3407ZM58.8468 32.487C58.7488 32.4874 58.6535 32.5191 58.5747 32.5776C58.4959 32.636 58.4378 32.7181 58.4088 32.8118L52.4575 52.4009C52.4401 52.4585 52.4342 52.519 52.4402 52.5789C52.4462 52.6389 52.464 52.697 52.4925 52.75C52.5211 52.803 52.5599 52.8498 52.6066 52.8877C52.6533 52.9256 52.7071 52.9538 52.7648 52.9708L79.3974 61.1153C79.5136 61.1491 79.6383 61.1358 79.7448 61.0782C79.8512 61.0206 79.9308 60.9234 79.9663 60.8076L85.9176 41.2185C85.9513 41.1022 85.9379 40.9772 85.8805 40.8705C85.823 40.7639 85.726 40.6842 85.6103 40.6486L58.9663 32.5212C58.9275 32.51 58.8873 32.5043 58.8468 32.5041V32.487Z"
            fill="#F4706B" />
    </g>
    <defs>
        <clipPath id="clip0_6133_625255">
            <rect width="189" height="123" fill="white" />
        </clipPath>
    </defs>
</svg>